<?xml version="1.0" encoding="UTF-8"?>
<svg id="Layer_1" xmlns="http://www.w3.org/2000/svg" version="1.1" viewBox="0 0 595.28 285.22">
  <!-- Generator: Adobe Illustrator 29.5.1, SVG Export Plug-In . SVG Version: 2.1.0 Build 141)  -->
  <defs>
    <style>
      .st0 {
        fill: #ff4800;
      }
    </style>
  </defs>
  <path class="st0" d="M494.08,262.51c-11.38,0-22.11-1.89-31.9-5.63-9.82-3.75-18.45-9.07-25.63-15.83-7.21-6.77-12.95-14.97-17.04-24.38-4.1-9.4-6.18-19.88-6.18-31.13v-80.35c0-12.06,2.12-23.21,6.32-33.13,4.19-9.93,10.03-18.51,17.35-25.5,7.29-6.96,15.86-12.39,25.47-16.15,9.59-3.74,20.01-5.64,30.98-5.64s21.24,1.67,30.68,4.96c9.53,3.33,17.87,8.23,24.77,14.58,6.92,6.36,12.4,14.15,16.29,23.16,3.78,8.77,5.54,18.64,5.85,24.8.07,1.45-.59,2.81-1.68,3.78-.95.85-2.22,1.27-3.5,1.27h-24.8c-2.65,0-4.47-2.15-4.85-4.76-.87-6.09-3.83-17.43-11.36-24.87-7.55-7.46-18.33-11.24-32.04-11.24-6.55,0-12.63,1.16-18.07,3.45-5.4,2.27-10.1,5.58-13.97,9.83-3.93,4.31-7.04,9.52-9.25,15.5-2.23,6.01-3.36,12.73-3.36,19.97v17.76c0,2.11,2.61,3.15,4.03,1.59,4.27-4.71,9.33-8.71,15.11-11.96,9.94-5.58,21.18-8.41,33.4-8.41,10.53,0,20.47,1.73,29.52,5.15,9.15,3.46,17.13,8.61,23.72,15.32,6.57,6.69,11.76,14.85,15.41,24.26,3.64,9.37,5.48,20.11,5.48,31.92v3.78c0,11.44-2.08,22.07-6.17,31.58-4.1,9.52-9.82,17.82-17.02,24.69-7.2,6.87-15.83,12.25-25.65,16-9.79,3.74-20.52,5.63-31.9,5.63ZM494.08,135.85c-6.56,0-12.7,1.17-18.25,3.46-5.57,2.3-10.48,5.51-14.59,9.52-4.1,4-7.34,8.74-9.64,14.1-2.28,5.33-3.44,11.14-3.44,17.26v5.99c0,6.39,1.07,12.4,3.19,17.87,2.09,5.41,5.16,10.17,9.14,14.15,3.98,3.98,8.85,7.11,14.47,9.3,5.68,2.22,12.11,3.34,19.12,3.34s13.44-1.12,19.12-3.34c5.62-2.19,10.49-5.32,14.47-9.3,3.97-3.97,7.04-8.77,9.13-14.28,2.12-5.59,3.19-11.88,3.19-18.68v-3.78c0-6.76-1.17-13.01-3.46-18.57-2.3-5.55-5.49-10.4-9.49-14.4-3.98-3.97-8.85-7.1-14.48-9.3-5.69-2.21-11.91-3.34-18.49-3.34Z"/>
  <path class="st0" d="M291.46,256.39c0,2.33,1.89,4.22,4.22,4.22h108.02c2.33,0,4.22-1.89,4.22-4.22v-25.17c0-2.33-1.89-4.22-4.22-4.22h-72.41c-2.33,0-4.22-1.89-4.22-4.22V30.84c0-2.33-1.89-4.23-4.22-4.23h-27.16c-2.33,0-4.22,1.89-4.22,4.23v225.56Z"/>
  <path class="st0" d="M255.04,26.61h-59.31c-2.35,0-4.8,1.83-5.45,4.06l-46.4,194.89c-.24.91-.99,1.38-1.77,1.42-.77-.04-1.53-.52-1.77-1.42L93.94,30.67c-.65-2.23-3.1-4.06-5.45-4.06H29.18c-2.36,0-4.27,1.89-4.27,4.23v225.56c0,2.33,1.91,4.22,4.27,4.22h26.14c2.36,0,4.27-1.89,4.27-4.22V40.4c0-2.21,3.17-2.66,3.8-.53l53.15,217.09c.65,2.24,3.1,4.06,5.46,4.06h40.22c2.36,0,4.81-1.82,5.46-4.06l53.15-217.09c.62-2.13,3.8-1.68,3.8.53v215.99c0,2.33,1.91,4.22,4.27,4.22h26.14c2.36,0,4.27-1.89,4.27-4.22V30.84c0-2.33-1.91-4.23-4.27-4.23"/>
</svg>